<svg id="delete-icon" xmlns="http://www.w3.org/2000/svg" width="48" height="48" viewBox="0 0 48 48">
  <path id="Path_6798" data-name="Path 6798" d="M0,0H48V48H0Z" fill="none"/>
  <path id="Path_6799" data-name="Path 6799" d="M12,38a4.012,4.012,0,0,0,4,4H32a4.012,4.012,0,0,0,4-4V14H12Zm4.93-14.24,2.83-2.83L24,25.17l4.24-4.24,2.83,2.83L26.83,28l4.24,4.24-2.83,2.83L24,30.83l-4.24,4.24-2.83-2.83L21.17,28ZM31,8,29,6H19L17,8H10v4H38V8Z" fill="#337ab7"/>
  <path id="Path_6800" data-name="Path 6800" d="M0,0H48V48H0Z" fill="none"/>
</svg>
