<svg xmlns="http://www.w3.org/2000/svg" width="114.729" height="125.289" viewBox="0 0 114.729 125.289">
  <g id="layer1" transform="translate(-2.207 -1.291)">
    <path id="rect26" d="M74.206,1.291l.268,15.248h-63.2a8.8,8.8,0,0,0-5.76,2.233c-.162.132-.362.215-.513.357s-.222.338-.357.491a8.12,8.12,0,0,0-2.322,5.514L2.207,55.117c-.017,4.759,4.1,8.59,9.243,8.6s9.315-3.836,9.332-8.6l.067-20H74.831l.29,15,20.9-12.591,20.918-12.614L95.572,13.1Zm33.488,62.868c-5.145-.005-9.315,3.836-9.332,8.6l-.067,20H44.313l-.29-15-20.9,12.591L2.207,102.96l21.365,11.81,21.365,11.81-.268-15.248h63.2a8.8,8.8,0,0,0,5.76-2.233c.162-.132.362-.215.513-.357s.222-.338.357-.491a8.121,8.121,0,0,0,2.322-5.514l.112-29.983c.017-4.759-4.1-8.59-9.242-8.595Z" transform="translate(0 0)" fill="#337ab7"/>
  </g>
</svg>
